<svg width="20" height="20" viewBox="0 0 20 20" fill="none" xmlns="http://www.w3.org/2000/svg">
<path fill-rule="evenodd" clip-rule="evenodd" d="M10.0001 18C14.4184 18 18.0001 14.4183 18.0001 10C18.0001 5.58172 14.4184 2 10.0001 2C5.58184 2 2.00012 5.58172 2.00012 10C2.00012 14.4183 5.58184 18 10.0001 18ZM9.55482 7.16795C9.24797 6.96338 8.85342 6.94431 8.52826 7.11833C8.20311 7.29235 8.00012 7.63121 8.00012 8V12C8.00012 12.3688 8.20311 12.7077 8.52826 12.8817C8.85342 13.0557 9.24797 13.0366 9.55482 12.8321L12.5548 10.8321C12.833 10.6466 13.0001 10.3344 13.0001 10C13.0001 9.66565 12.833 9.35342 12.5548 9.16795L9.55482 7.16795Z" fill="#FFFFFF"/>
</svg>
