<svg width="20px" fill="#ea1d2c" height="20px" viewBox="0 0 48 48" xmlns="http://www.w3.org/2000/svg"><g stroke="none" stroke-width="1" fill-rule="evenodd"><g transform="translate(-432.000000, -1296.000000)" fill="ea1d2c"><g transform="translate(47.000000, 1227.000000)"><g transform="translate(385.000000, 69.000000)"><path d="M22,37 C30.2842712,37 37,30.2842712 37,22 C37,13.7157288 30.2842712,7 22,7 C13.7157288,7 7,13.7157288 7,22 C7,30.2842712 13.7157288,37 22,37 Z M22,40 C12.0588745,40 4,31.9411255 4,22 C4,12.0588745 12.0588745,4 22,4 C31.9411255,4 40,12.0588745 40,22 C40,31.9411255 31.9411255,40 22,40 Z" fill-rule="nonzero"></path><rect transform="translate(37.792893, 38.292893) rotate(-45.000000) translate(-37.792893, -38.292893) " x="36.2928932" y="32.2928932" width="3" height="12" rx="1.5"></rect></g></g></g></g></svg>